<svg xmlns="http://www.w3.org/2000/svg" xmlns:xlink="http://www.w3.org/1999/xlink" width="786.738" height="240.325" viewBox="0 0 786.738 240.325">
  <defs>
    <linearGradient id="linear-gradient" y1="0.5" x2="1" y2="0.5" gradientUnits="objectBoundingBox">
      <stop offset="0" stop-color="#fffaff" stop-opacity="0.6"/>
      <stop offset="0.516" stop-color="#373737"/>
      <stop offset="1" stop-color="#fffaff"/>
    </linearGradient>
    <linearGradient id="linear-gradient-4" x1="-44.424" y1="-28.798" x2="14.172" y2="29.798" xlink:href="#linear-gradient"/>
    <linearGradient id="linear-gradient-5" x1="-19.422" y1="-34.788" x2="39.173" y2="23.808" xlink:href="#linear-gradient"/>
    <linearGradient id="linear-gradient-6" x1="-44.424" y1="-34.788" x2="14.172" y2="23.808" xlink:href="#linear-gradient"/>
  </defs>
  <g id="Group_1725" data-name="Group 1725" transform="translate(-437 -243.961)">
    <rect id="Rectangle_212" data-name="Rectangle 212" width="1.772" height="1.772" transform="translate(1029.125 430.396) rotate(180)" fill="#17bfcf"/>
    <rect id="Rectangle_215" data-name="Rectangle 215" width="2.303" height="2.303" transform="translate(647.652 437.977) rotate(180)" fill="#17bfcf"/>
    <rect id="Rectangle_216" data-name="Rectangle 216" width="41.29" height="0.948" transform="translate(1039.791 443.792) rotate(180)" fill="#17bfcf"/>
    <rect id="Rectangle_217" data-name="Rectangle 217" width="24.744" height="3.555" transform="translate(1032.484 448.72) rotate(180)" fill="#17bfcf"/>
    <rect id="Rectangle_221" data-name="Rectangle 221" width="70.237" height="0.671" transform="translate(561.914 462.914)" fill="#17bfcf"/>
    <rect id="Rectangle_222" data-name="Rectangle 222" width="70.237" height="0.671" transform="translate(597.031 477.61)" fill="#17bfcf"/>
    <rect id="Rectangle_223" data-name="Rectangle 223" width="40.879" height="2.432" transform="translate(593.611 470.296)" fill="#17bfcf"/>
    <rect id="Rectangle_227" data-name="Rectangle 227" width="9.114" height="3.058" transform="translate(1030.871 463.162)" fill="#17bfcf"/>
    <rect id="Rectangle_228" data-name="Rectangle 228" width="6.669" height="2.237" transform="translate(1044.338 463.982)" fill="#17bfcf"/>
    <rect id="Rectangle_229" data-name="Rectangle 229" width="4.269" height="2.237" transform="translate(1057.377 463.982)" fill="#17bfcf"/>
    <rect id="Rectangle_230" data-name="Rectangle 230" width="4.269" height="2.237" transform="translate(1062.148 463.982)" fill="#17bfcf"/>
    <rect id="Rectangle_231" data-name="Rectangle 231" width="4.269" height="2.237" transform="translate(1066.918 463.982)" fill="#17bfcf"/>
    <rect id="Rectangle_232" data-name="Rectangle 232" width="4.269" height="2.237" transform="translate(1071.689 463.982)" fill="#17bfcf"/>
    <rect id="Rectangle_233" data-name="Rectangle 233" width="1.804" height="2.237" transform="translate(1082.596 463.982)" fill="#17bfcf"/>
    <rect id="Rectangle_234" data-name="Rectangle 234" width="1.804" height="2.237" transform="translate(1087.654 463.982)" fill="#17bfcf"/>
    <rect id="Rectangle_235" data-name="Rectangle 235" width="1.804" height="2.237" transform="translate(1098.342 463.982)" fill="#17bfcf"/>
    <rect id="Rectangle_236" data-name="Rectangle 236" width="1.804" height="2.237" transform="translate(1101.617 463.982)" fill="#17bfcf"/>
    <rect id="Rectangle_237" data-name="Rectangle 237" width="1.804" height="2.237" transform="translate(1104.893 463.982)" fill="#17bfcf"/>
    <rect id="Rectangle_238" data-name="Rectangle 238" width="1.804" height="2.237" transform="translate(1108.166 463.982)" fill="#17bfcf"/>
    <rect id="Rectangle_239" data-name="Rectangle 239" width="1.804" height="2.237" transform="translate(1111.441 463.982)" fill="#17bfcf"/>
    <rect id="Rectangle_240" data-name="Rectangle 240" width="1.804" height="2.237" transform="translate(1114.717 463.982)" fill="#17bfcf"/>
    <rect id="Rectangle_241" data-name="Rectangle 241" width="1.804" height="2.237" transform="translate(1117.99 463.982)" fill="#17bfcf"/>
    <rect id="Rectangle_242" data-name="Rectangle 242" width="1.804" height="2.237" transform="translate(1121.266 463.982)" fill="#17bfcf"/>
    <rect id="Rectangle_243" data-name="Rectangle 243" width="20.515" height="0.671" transform="translate(1015.119 460.479)" fill="#17bfcf"/>
    <rect id="Rectangle_278" data-name="Rectangle 278" width="120.441" height="0.671" transform="translate(998.418 479.701)" fill="#17bfcf"/>
    <rect id="Rectangle_280" data-name="Rectangle 280" width="24.511" height="24.511" transform="translate(908.457 430.94)" fill="#17bfcf" opacity="0.1"/>
    <rect id="Rectangle_283" data-name="Rectangle 283" width="147.853" height="21.905" transform="translate(589.334 462.381)" fill="#17bfcf" opacity="0.1"/>
    <rect id="Rectangle_286" data-name="Rectangle 286" width="147.853" height="3.768" transform="translate(975.217 447.751)" fill="#17bfcf" opacity="0.2"/>
    <rect id="Rectangle_287" data-name="Rectangle 287" width="147.853" height="9.203" transform="translate(568.436 456.631)" fill="#17bfcf" opacity="0.1"/>
    <text id="صفحه_مورد_نظر_یافت_نشد" data-name="صفحه مورد نظر یافت نشد" transform="translate(719.973 450.713)" fill="#031718" font-size="22" font-family="IRANSans-Bold, IRANSans" font-weight="700"><tspan x="0" y="0">صفحه مورد نظر یافت نشد</tspan></text>
    <g id="Group_1724" data-name="Group 1724" transform="translate(-142 -58.353)">
      <g id="Group_1721" data-name="Group 1721" transform="translate(579 302.313)">
        <path id="Path_442" data-name="Path 442" d="M373.685,245.6h-.473v5.8h-5.8v.473h5.8v5.8h.473v-5.8h5.8V251.4h-5.8Z" transform="translate(210.348 -218.371)" fill="url(#linear-gradient)"/>
        <path id="Path_448" data-name="Path 448" d="M181.684,291.6h-.471v5.8h-5.8v.473h5.8v5.8h.471v-5.8h5.8V297.4h-5.8Z" transform="translate(100.425 -192.035)" fill="url(#linear-gradient)"/>
        <path id="Path_452" data-name="Path 452" d="M373.685,291.6h-.473v5.8h-5.8v.473h5.8v5.8h.473v-5.8h5.8V297.4h-5.8Z" transform="translate(210.348 -192.035)" fill="url(#linear-gradient)"/>
        <path id="Path_552" data-name="Path 552" d="M373.685,245.6h-.473v5.8h-5.8v.473h5.8v5.8h.473v-5.8h5.8V251.4h-5.8Z" transform="translate(210.348 -218.371)" fill="url(#linear-gradient-4)"/>
        <path id="Path_558" data-name="Path 558" d="M181.684,291.6h-.471v5.8h-5.8v.473h5.8v5.8h.471v-5.8h5.8V297.4h-5.8Z" transform="translate(100.425 -192.035)" fill="url(#linear-gradient-5)"/>
        <path id="Path_562" data-name="Path 562" d="M373.685,291.6h-.473v5.8h-5.8v.473h5.8v5.8h.473v-5.8h5.8V297.4h-5.8Z" transform="translate(210.348 -192.035)" fill="url(#linear-gradient-6)"/>
        <path id="Path_644" data-name="Path 644" d="M207.361,237.2H169.3l-12.126,10.756h47.718Z" transform="translate(89.983 -223.183)" fill="#17bfcf"/>
        <path id="Path_645" data-name="Path 645" d="M180.3,266.17l-2.419,10.446h37.064l3.3-14.341H144.774l-16.168,14.341h40Z" transform="translate(73.629 -208.824)" fill="#17bfcf"/>
        <path id="Path_646" data-name="Path 646" d="M175.342,271.4h-40l-9.095,8.067h40.075Z" transform="translate(72.276 -203.603)" fill="#17bfcf"/>
        <path id="Path_647" data-name="Path 647" d="M201.1,271.4H164.039l-1.868,8.067h37.079Z" transform="translate(92.845 -203.603)" fill="#17bfcf"/>
        <path id="Path_648" data-name="Path 648" d="M197.12,276.525H160.041l-.415,1.793h37.082Z" transform="translate(91.388 -200.666)" fill="#17bfcf"/>
        <path id="Path_649" data-name="Path 649" d="M164.773,276.525H124.7l-2.021,1.793h40.09Z" transform="translate(70.235 -200.666)" fill="#17bfcf"/>
        <path id="Path_650" data-name="Path 650" d="M223.057,279.375H185.971l-2.357,10.175H154.191l11.382-10.175H125.46l-19.2,17.031H241.975l1.608-6.856H220.719Z" transform="translate(60.835 -199.034)" fill="#17bfcf"/>
        <path id="Path_651" data-name="Path 651" d="M242.667,299.325H105.98l-.542,2.39H242.106Z" transform="translate(60.364 -187.612)" fill="#17bfcf"/>
        <path id="Path_652" data-name="Path 652" d="M110.557,300.845l-1.536,6.773h76.835l-.374,1.593h36.933l.36-1.593h22.863l1.589-6.773Z" transform="translate(62.416 -186.742)" fill="#17bfcf"/>
        <path id="Path_653" data-name="Path 653" d="M191.012,306.166H154.08l-2.736,11.652h37.033Z" transform="translate(86.647 -183.696)" fill="#17bfcf"/>
        <path id="Path_654" data-name="Path 654" d="M148.634,313.576l-1.95,8.305h37.105l1.878-8.305Z" transform="translate(83.979 -179.454)" fill="#17bfcf"/>
        <path id="Path_655" data-name="Path 655" d="M171.334,235.485l-3.031,2.689h38.064l.618-2.689Z" transform="translate(96.356 -224.162)" fill="#17bfcf"/>
        <path id="Path_656" data-name="Path 656" d="M213.043,228.284H187.556l-12.766,11.323h35.65Z" transform="translate(100.07 -228.284)" fill="#17bfcf"/>
        <path id="Path_671" data-name="Path 671" d="M402.808,237.2H364.741l-12.126,10.756h47.72Z" transform="translate(201.878 -223.183)" fill="#17bfcf"/>
        <path id="Path_672" data-name="Path 672" d="M338.7,263.13l-14.652,13h40l11.685-10.446-2.419,10.446h37.066l2.987-13Z" transform="translate(185.524 -208.335)" fill="#17bfcf"/>
        <path id="Path_673" data-name="Path 673" d="M370.787,271.4h-40l-9.094,8.067h40.075Z" transform="translate(184.171 -203.603)" fill="#17bfcf"/>
        <path id="Path_674" data-name="Path 674" d="M439.026,290.529h-22.86l2.956-12.864H382.039l-2.979,12.864H349.638l14.389-12.864H323.936l-22.231,19.72H437.419Z" transform="translate(172.731 -200.013)" fill="#17bfcf"/>
        <path id="Path_675" data-name="Path 675" d="M438.113,299.325H301.425l-.542,2.39h136.67Z" transform="translate(172.26 -187.612)" fill="#17bfcf"/>
        <path id="Path_676" data-name="Path 676" d="M306,300.845l-1.536,6.773H381.3l-.374,1.593H417.86l.36-1.593h22.864l1.588-6.773Z" transform="translate(174.311 -186.742)" fill="#17bfcf"/>
        <path id="Path_677" data-name="Path 677" d="M386.459,306.166H349.527l-2.738,11.652h37.034Z" transform="translate(198.542 -183.696)" fill="#17bfcf"/>
        <path id="Path_678" data-name="Path 678" d="M344.079,313.576l-1.951,8.305h37.107l1.878-8.305Z" transform="translate(195.873 -179.454)" fill="#17bfcf"/>
        <path id="Path_679" data-name="Path 679" d="M360.219,276.525H320.144l-2.021,1.793h40.091Z" transform="translate(182.13 -200.666)" fill="#17bfcf"/>
        <path id="Path_680" data-name="Path 680" d="M392.567,276.525H355.486l-.415,1.793h37.084Z" transform="translate(203.283 -200.666)" fill="#17bfcf"/>
        <path id="Path_681" data-name="Path 681" d="M396.55,271.4H359.484l-1.868,8.067H394.7Z" transform="translate(204.74 -203.603)" fill="#17bfcf"/>
        <path id="Path_682" data-name="Path 682" d="M408.49,228.284H383l-12.765,11.323h35.653Z" transform="translate(211.965 -228.284)" fill="#17bfcf"/>
        <path id="Path_683" data-name="Path 683" d="M366.778,235.485l-3.031,2.689h38.066l.618-2.689Z" transform="translate(208.25 -224.162)" fill="#17bfcf"/>
        <path id="Path_684" data-name="Path 684" d="M187.52,257.316v-5.976h34.129l1.373-5.976h-49.6l-29.978,26.591H216.91l3.365-14.64Z" transform="translate(82.126 -218.505)" fill="#17bfcf"/>
        <path id="Path_685" data-name="Path 685" d="M303.973,291.63l-1.034,4.556h81.355v2.988H302.262l-1.034,4.556H437.916l2.837-12.1Z" transform="translate(172.457 -192.018)" fill="#17bfcf"/>
        <path id="Path_688" data-name="Path 688" d="M398.061,267.346V250.016h19.327l1.047-4.556H368.7L338.893,271.9h73.465l1.047-4.556Z" transform="translate(194.021 -218.451)" fill="#17bfcf"/>
        <path id="Path_689" data-name="Path 689" d="M112.4,290.205l-1.356,1.2-1.608,7.088h64.454v2.988H108.757l-.695,3.062H244.749l3.364-14.341Z" transform="translate(61.867 -192.834)" fill="#17bfcf"/>
        <rect id="Rectangle_213" data-name="Rectangle 213" width="2.786" height="2.786" transform="translate(189.509 23.766) rotate(180)" fill="#17bfcf"/>
        <rect id="Rectangle_214" data-name="Rectangle 214" width="3.622" height="3.622" transform="translate(643.195 82.152) rotate(180)" fill="#17bfcf"/>
        <rect id="Rectangle_218" data-name="Rectangle 218" width="2.786" height="2.786" transform="translate(143.145 98.699) rotate(180)" fill="#17bfcf"/>
        <rect id="Rectangle_219" data-name="Rectangle 219" width="64.929" height="1.491" transform="translate(159.917 119.766) rotate(180)" fill="#17bfcf"/>
        <rect id="Rectangle_220" data-name="Rectangle 220" width="38.91" height="5.59" transform="translate(148.431 127.514) rotate(180)" fill="#17bfcf"/>
        <rect id="Rectangle_224" data-name="Rectangle 224" width="69.703" height="1.055" transform="translate(607.728 76.774)" fill="#17bfcf"/>
        <rect id="Rectangle_225" data-name="Rectangle 225" width="69.703" height="1.055" transform="translate(642.581 99.884)" fill="#17bfcf"/>
        <rect id="Rectangle_226" data-name="Rectangle 226" width="40.568" height="3.825" transform="translate(639.187 88.383)" fill="#17bfcf"/>
        <rect id="Rectangle_244" data-name="Rectangle 244" width="14.332" height="1.874" transform="translate(154.773 84.854) rotate(180)" fill="#17bfcf"/>
        <rect id="Rectangle_245" data-name="Rectangle 245" width="10.487" height="1.372" transform="translate(133.596 84.854) rotate(180)" fill="#17bfcf"/>
        <rect id="Rectangle_246" data-name="Rectangle 246" width="6.714" height="1.372" transform="translate(113.095 84.854) rotate(180)" fill="#17bfcf"/>
        <rect id="Rectangle_247" data-name="Rectangle 247" width="6.714" height="1.372" transform="translate(105.592 84.854) rotate(180)" fill="#17bfcf"/>
        <rect id="Rectangle_248" data-name="Rectangle 248" width="6.714" height="1.372" transform="translate(98.089 84.854) rotate(180)" fill="#17bfcf"/>
        <rect id="Rectangle_249" data-name="Rectangle 249" width="6.714" height="1.372" transform="translate(90.585 84.854) rotate(180)" fill="#17bfcf"/>
        <rect id="Rectangle_250" data-name="Rectangle 250" width="2.837" height="1.372" transform="translate(73.435 84.854) rotate(180)" fill="#17bfcf"/>
        <rect id="Rectangle_251" data-name="Rectangle 251" width="2.837" height="1.372" transform="translate(65.48 84.854) rotate(180)" fill="#17bfcf"/>
        <rect id="Rectangle_252" data-name="Rectangle 252" width="2.836" height="1.372" transform="translate(48.674 84.854) rotate(180)" fill="#17bfcf"/>
        <rect id="Rectangle_253" data-name="Rectangle 253" width="2.836" height="1.372" transform="translate(43.524 84.854) rotate(180)" fill="#17bfcf"/>
        <rect id="Rectangle_254" data-name="Rectangle 254" width="2.837" height="1.372" transform="translate(38.376 84.854) rotate(180)" fill="#17bfcf"/>
        <rect id="Rectangle_255" data-name="Rectangle 255" width="2.836" height="1.372" transform="translate(33.226 84.854) rotate(180)" fill="#17bfcf"/>
        <rect id="Rectangle_256" data-name="Rectangle 256" width="2.837" height="1.372" transform="translate(28.075 84.854) rotate(180)" fill="#17bfcf"/>
        <rect id="Rectangle_257" data-name="Rectangle 257" width="2.836" height="1.372" transform="translate(22.927 84.854) rotate(180)" fill="#17bfcf"/>
        <rect id="Rectangle_258" data-name="Rectangle 258" width="2.836" height="1.372" transform="translate(17.777 84.854) rotate(180)" fill="#17bfcf"/>
        <rect id="Rectangle_259" data-name="Rectangle 259" width="2.836" height="1.372" transform="translate(12.626 84.854) rotate(180)" fill="#17bfcf"/>
        <rect id="Rectangle_260" data-name="Rectangle 260" width="32.26" height="0.411" transform="translate(179.546 72.783) rotate(180)" fill="#17bfcf"/>
        <rect id="Rectangle_261" data-name="Rectangle 261" width="14.332" height="1.874" transform="translate(749.883 39.508) rotate(180)" fill="#17bfcf"/>
        <rect id="Rectangle_262" data-name="Rectangle 262" width="10.487" height="1.372" transform="translate(728.707 39.508) rotate(180)" fill="#17bfcf"/>
        <rect id="Rectangle_263" data-name="Rectangle 263" width="6.714" height="1.372" transform="translate(708.203 39.508) rotate(180)" fill="#17bfcf"/>
        <rect id="Rectangle_264" data-name="Rectangle 264" width="6.714" height="1.372" transform="translate(700.699 39.508) rotate(180)" fill="#17bfcf"/>
        <rect id="Rectangle_265" data-name="Rectangle 265" width="6.714" height="1.372" transform="translate(693.196 39.508) rotate(180)" fill="#17bfcf"/>
        <rect id="Rectangle_266" data-name="Rectangle 266" width="6.714" height="1.372" transform="translate(685.696 39.508) rotate(180)" fill="#17bfcf"/>
        <rect id="Rectangle_267" data-name="Rectangle 267" width="2.837" height="1.372" transform="translate(668.543 39.508) rotate(180)" fill="#17bfcf"/>
        <rect id="Rectangle_268" data-name="Rectangle 268" width="2.837" height="1.372" transform="translate(660.588 39.508) rotate(180)" fill="#17bfcf"/>
        <rect id="Rectangle_269" data-name="Rectangle 269" width="2.836" height="1.372" transform="translate(643.782 39.508) rotate(180)" fill="#17bfcf"/>
        <rect id="Rectangle_270" data-name="Rectangle 270" width="2.836" height="1.372" transform="translate(638.634 39.508) rotate(180)" fill="#17bfcf"/>
        <rect id="Rectangle_271" data-name="Rectangle 271" width="2.837" height="1.372" transform="translate(633.484 39.508) rotate(180)" fill="#17bfcf"/>
        <rect id="Rectangle_272" data-name="Rectangle 272" width="2.837" height="1.372" transform="translate(628.333 39.508) rotate(180)" fill="#17bfcf"/>
        <rect id="Rectangle_273" data-name="Rectangle 273" width="2.837" height="1.372" transform="translate(623.185 39.508) rotate(180)" fill="#17bfcf"/>
        <rect id="Rectangle_274" data-name="Rectangle 274" width="2.836" height="1.372" transform="translate(618.035 39.508) rotate(180)" fill="#17bfcf"/>
        <rect id="Rectangle_275" data-name="Rectangle 275" width="2.836" height="1.372" transform="translate(612.884 39.508) rotate(180)" fill="#17bfcf"/>
        <rect id="Rectangle_276" data-name="Rectangle 276" width="2.836" height="1.372" transform="translate(607.737 39.508) rotate(180)" fill="#17bfcf"/>
        <rect id="Rectangle_277" data-name="Rectangle 277" width="32.26" height="0.411" transform="translate(774.654 27.437) rotate(180)" fill="#17bfcf"/>
        <rect id="Rectangle_279" data-name="Rectangle 279" width="189.395" height="1.055" transform="translate(78.942 54.404)" fill="#17bfcf"/>
        <rect id="Rectangle_281" data-name="Rectangle 281" width="19.272" height="19.272" transform="translate(607.387 34.541)" fill="#17bfcf" opacity="0.1"/>
        <rect id="Rectangle_282" data-name="Rectangle 282" width="19.272" height="19.272" transform="translate(168.846 39.313)" fill="#fff" opacity="0.1"/>
        <rect id="Rectangle_285" data-name="Rectangle 285" width="232.501" height="11.85" transform="translate(0 22.372)" fill="#17bfcf" opacity="0.15"/>
        <rect id="Rectangle_289" data-name="Rectangle 289" width="232.501" height="5.476" transform="translate(554.237 94.936)" fill="#17bfcf" opacity="0.2"/>
      </g>
      <text id="PAGE_NOT_FOUND" data-name="PAGE NOT FOUND" transform="translate(704.815 455.184)" fill="#fff" font-size="23" font-family="Poppins-MediumItalic, Poppins" font-weight="500" font-style="italic" letter-spacing="0.05em" opacity="0.05"><tspan x="-107.261" y="0">PAGE NOT FOUND</tspan></text>
      <g id="Group_78" data-name="Group 78" transform="translate(928.12 288.233)">
        <g id="Group_55" data-name="Group 55" transform="translate(0 38.078)">
          <g id="Group_54" data-name="Group 54" transform="translate(0 0)">
            <g id="Group_28" data-name="Group 28">
              <g id="Group_27" data-name="Group 27">
                <g id="Group_26" data-name="Group 26">
                  <g id="Group_25" data-name="Group 25">
                    <g id="Group_24" data-name="Group 24">
                      <g id="Group_23" data-name="Group 23">
                        <g id="Group_80" data-name="Group 80">
                          <g id="Group_79" data-name="Group 79">
                            <path id="Path_8" data-name="Path 8" d="M104.547,58.35c.1,12.406-9.683,23.878-25.316,24.014-11.654.1-23.155-10.767-22.976-24.189a24.147,24.147,0,0,1,48.292.175Z" transform="translate(-32.141 -9.397)" fill="#17b3c5"/>
                            <path id="Path_10" data-name="Path 10" d="M48.545,31.717a3.355,3.355,0,0,1,.466,2.347c.015,9.077.058,18.156-.033,27.234a4.965,4.965,0,0,0,1.693,3.937c4.1,4,8.154,8.035,12.132,12.15a7.373,7.373,0,0,1,1.5,8.208c-.6,1.264-1,1.754-2.271.459-6.309-6.436-12.7-12.789-19.108-19.131a3.689,3.689,0,0,1-1.251-2.9q.084-11.644-.013-23.287a3.935,3.935,0,0,1,1.31-3.086C44.858,35.766,46.63,33.767,48.545,31.717Z" transform="translate(-41.656 -11.061)" fill="#3c3c3e"/>
                            <path id="Path_11" data-name="Path 11" d="M76.684,19.234c-4.077,4.125-7.934,8.046-11.814,11.945-3.157,3.17-6.32,6.337-9.532,9.452a3.285,3.285,0,0,0-1.052,2.605q.032,8.784-.046,17.568c-.035,3.443-2.139,6.512-4.929,7.391-1.145.36-1.819.306-1.809-1.247.055-9.213.036-18.427.012-27.64a2.689,2.689,0,0,1,.943-2.05Q57.069,28.7,65.634,20.094a2.607,2.607,0,0,1,2.058-.882C70.587,19.268,73.484,19.234,76.684,19.234Z" transform="translate(-37.847 -19.212)" fill="#3c3c3e"/>
                            <path id="Path_12" data-name="Path 12" d="M54.009,79.616c10.536,0,20.408-.02,30.28.026a3.948,3.948,0,0,0,3.1-1.277c4.12-4.163,8.27-8.3,12.5-12.35a7.13,7.13,0,0,1,9.839-.572q-6.445,6.494-12.887,12.982c-2.461,2.47-4.985,4.88-7.411,7.386a3.485,3.485,0,0,1-2.77,1.133c-7.964-.038-15.928-.015-23.892,0-.591,0-1.209.094-1.682-.368C58.849,84.385,56.622,82.186,54.009,79.616Z" transform="translate(-33.604 9.822)" fill="#3c3c3e"/>
                            <path id="Path_13" data-name="Path 13" d="M101.834,87.256c0-10.405-.038-20.147.04-29.888a4.683,4.683,0,0,0-1.612-3.743q-6.036-5.833-11.881-11.859c-3.069-3.157-3.276-7.163-.631-10.1q10.4,10.4,20.806,20.776a2.458,2.458,0,0,1,.653,1.964q-.012,12.047,0,24.095a2.143,2.143,0,0,1-.393,1.675C106.613,82.408,104.411,84.639,101.834,87.256Z" transform="translate(-12.806 -11.095)" fill="#3c3c3e"/>
                            <path id="Path_14" data-name="Path 14" d="M76.413,97.327c2.534-2.453,5.088-4.888,7.6-7.364,4.6-4.53,9.157-9.1,13.777-13.61a3.256,3.256,0,0,0,1.072-2.589q-.067-8.791,0-17.585A7.384,7.384,0,0,1,103.47,49c1.744-.78,2.065-.539,2.067,1.308.007,9.023-.015,18.047.026,27.07a3.318,3.318,0,0,1-1.112,2.582q-8.507,8.4-16.939,16.874a3.07,3.07,0,0,1-2.423,1.019c-2.8-.058-5.6-.02-8.4-.02Z" transform="translate(-18.997 -0.066)" fill="#3c3c3e"/>
                            <path id="Path_15" data-name="Path 15" d="M41.689,54.36c7.285,7.321,14.173,14.2,20.991,21.143a4.741,4.741,0,0,0,3.8,1.55c5.526-.083,11.055-.06,16.584,0,3.882.043,6.907,2.148,7.823,5.184.32,1.061.284,1.512-1.037,1.5-9.347-.048-18.691-.035-28.036-.008a2.678,2.678,0,0,1-2.057-.91q-8.571-8.593-17.187-17.147a2.205,2.205,0,0,1-.892-1.66C41.712,61.009,41.689,58,41.689,54.36Z" transform="translate(-41.645 3.704)" fill="#3c3c3e"/>
                            <path id="Path_16" data-name="Path 16" d="M119.554,54.507C112.182,47.083,105.212,40.1,98.3,33.057a3.938,3.938,0,0,0-3.1-1.292c-5.863.04-11.729.038-17.591-.048a7.6,7.6,0,0,1-7.173-4.944c-.4-1.13-.35-1.659,1.089-1.652,9.356.045,18.713.03,28.071.012a2.469,2.469,0,0,1,1.89.834q8.648,8.677,17.352,17.3a2.179,2.179,0,0,1,.74,1.713C119.533,47.936,119.554,50.891,119.554,54.507Z" transform="translate(-23.039 -15.358)" fill="#3c3c3e"/>
                            <path id="Path_17" data-name="Path 17" d="M109.508,26.669H107.1c-9.285-.012-18.571,0-27.856-.059a3.713,3.713,0,0,0-2.935,1.2q-5.957,6.053-12.028,11.995c-2.506,2.47-5.445,3.39-8.843,2.124-1.183-.439-1.908-.965-.542-2.3C61.391,33.276,67.8,26.836,74.212,20.4a3.121,3.121,0,0,1,2.423-1q12.05.057,24.1,0a3.06,3.06,0,0,1,2.435.973C105.119,22.385,107.139,24.325,109.508,26.669Z" transform="translate(-33.508 -19.092)" fill="#3c3c3e"/>
                            <path id="Path_64" data-name="Path 64" d="M72.753,65.328c-.877-1.457.223-2.316,1.049-3.165a5.277,5.277,0,0,0-.349-7.369,39.174,39.174,0,0,0-9.077-6.753,18.733,18.733,0,0,1-2.432-1.979H90.76c-2.361,3.783-7.541,5.615-15.812,5.557,1.009,1.566,2.544,2.291,3.907,3.193,2.777,1.835,3.089,4.3.786,6.7-.664.692-1.449,1.194-1.492,2.394-.036.985-.813.778-1.414.276-.456-2.22-.14-4.44-.175-6.38-.248,1.925.16,4.176-.188,6.386-.638,1.036-1.777-.669-2.4.441A1.182,1.182,0,0,1,72.753,65.328Z" transform="translate(-28.431 -1.707)" fill="#feffff"/>
                            <path id="Path_65" data-name="Path 65" d="M92.972,49.041c-.509,1.175-1.358,1.029-2.114,1.029q-13.923.012-27.845,0c-.757,0-1.629.16-1.844-1.148,1.972,0,3.867-.056,5.757.021,1.135.046,1.523-.261,1.692-1.487.823-5.958,5.471-9.639,10.937-8.826a7.89,7.89,0,0,1,6.634,7.521c.007.4.079.889-.547.7-.443-.132-1.036.6-1.365-.362a7.413,7.413,0,0,0-2.212-3.223c-1.822-1.564-3.87-2.26-6.2-1.3a6.225,6.225,0,0,0-3.8,5.141c-.22,1.322.147,1.857,1.622,1.839,6.122-.074,12.244-.031,18.366-.025A8.554,8.554,0,0,1,92.972,49.041Z" transform="translate(-28.936 -6.622)" fill="#fafdfd"/>
                            <path id="Path_66" data-name="Path 66" d="M67.988,59.086l.821-.8c.363-.686,1.057-.591,1.663-.705,2.341,0,4.815-.578,6.684,1.513-.221,1.082-1.125.887-1.839.918-1.6.066-3.208.023-4.812.028C69.61,59.872,68.437,60.43,67.988,59.086Z" transform="translate(-24.49 5.756)" fill="#f9fcfd"/>
                            <path id="Path_67" data-name="Path 67" d="M78.17,59.042c.069.621-.292.78-.819.778-2.99,0-5.98,0-8.968-.015-.572,0-1.173-.053-.512-.838a13.392,13.392,0,0,1,2.909-.129C73.242,58.963,75.717,58.59,78.17,59.042Z" transform="translate(-24.756 6.603)" fill="#f8fcfd"/>
                            <path id="Path_68" data-name="Path 68" d="M76.947,59.267l-7.491-.081V58.93c2.233-.357,4.546.428,6.743-.463Z" transform="translate(-23.534 6.381)" fill="#40baca"/>
                            <path id="Path_69" data-name="Path 69" d="M70.678,59.724V52.91l.363-.008v6.816C70.921,59.721,70.8,59.724,70.678,59.724Z" transform="translate(-22.736 2.75)" fill="#2db6c7"/>
                            <path id="Path_70" data-name="Path 70" d="M70.564,58.932a1.656,1.656,0,0,0,0,.256l-2.808.007.385-.732C68.822,59.271,69.78,58.653,70.564,58.932Z" transform="translate(-24.642 6.377)" fill="#63c4d2"/>
                            <path id="Path_71" data-name="Path 71" d="M70.148,57.715l-1.663.705,0-.418,1.219-.7Z" transform="translate(-24.167 5.618)" fill="#57c1cf"/>
                            <path id="Path_81" data-name="Path 81" d="M72.626,52.714c.937,1.051.889,2.024-.568,3.267A9.608,9.608,0,0,0,72.626,52.714Z" transform="translate(-21.838 2.627)" fill="#4bbdcd"/>
                            <path id="Path_82" data-name="Path 82" d="M68.712,49.631a2.554,2.554,0,0,1,.466.463c.053.084-.071.281-.116.428a5.027,5.027,0,0,1-.593-.472C68.324,49.9,68.347,49.723,68.712,49.631Z" transform="translate(-24.231 0.621)" fill="#72c9d6"/>
                            <path id="Path_83" data-name="Path 83" d="M70.025,40.828c-1.619,1.9-2.935,3.95-3,6.606-1.009-2.209.317-5.276,2.755-6.87C69.994,40.524,70.072,40.618,70.025,40.828Z" transform="translate(-25.344 -5.299)" fill="#40bacb"/>
                            <path id="Path_84" data-name="Path 84" d="M70.192,39.756a5.168,5.168,0,0,1,4.848.5,17.513,17.513,0,0,0-4.427-.139C70.2,40.316,70.14,40.1,70.192,39.756Z" transform="translate(-23.064 -6.056)" fill="#31b7c8"/>
                            <path id="Path_85" data-name="Path 85" d="M71.25,39.611l.421.362-2.866,1.47a.411.411,0,0,0-.251-.266A4.111,4.111,0,0,1,71.25,39.611Z" transform="translate(-24.121 -5.914)" fill="#55c0cf"/>
                          </g>
                        </g>
                      </g>
                    </g>
                  </g>
                </g>
              </g>
            </g>
          </g>
        </g>
      </g>
      <rect id="Rectangle_290" data-name="Rectangle 290" width="232.501" height="14.471" transform="translate(787.138 339.481)" fill="#17bfcf" opacity="0.1"/>
      <rect id="Rectangle_291" data-name="Rectangle 291" width="232.501" height="14.471" transform="translate(1014.313 332.183)" fill="#17bfcf" opacity="0.1"/>
      <rect id="Rectangle_292" data-name="Rectangle 292" width="232.501" height="34.446" transform="translate(730.299 386.931)" fill="#17bfcf" opacity="0.1"/>
    </g>
  </g>
</svg>
