<svg xmlns="http://www.w3.org/2000/svg" width="24" height="24" viewBox="0 0 24 24"><title>Ertebate aghlam ba factor</title><rect width="24" height="24" fill="none"/><path d="M9.6,15.91H8.4v1.2H9.6ZM5.49,9.37A2.51,2.51,0,0,1,5.15,8.1,2.84,2.84,0,0,1,8.1,5.37V6.73l2-1.81L8.1,3.1V4.46A3.8,3.8,0,0,0,4.16,8.1,3.43,3.43,0,0,0,4.77,10ZM9.6,14.11H8.4v1.2H9.6Zm-1.8,0H4.2v1.2H7.8ZM18.14,6.3c-1.07-.36-1.59-.58-1.59-1.14s.67-.84,1.09-.84a1.16,1.16,0,0,1,1.14.81l.95-.4a2,2,0,0,0-1.6-1.34V2.64H17.08v.75a1.85,1.85,0,0,0-1.57,1.78c0,1.36,1.35,1.75,2,2,.95.33,1.37.64,1.37,1.21s-.63,1-1.19,1a1.59,1.59,0,0,1-1.44-1.25l-1,.4a2.41,2.41,0,0,0,1.82,1.77V11h1.05v-.75a2,2,0,0,0,1.81-1.93C19.94,7.53,19.58,6.8,18.14,6.3Zm-.42,8.46A2.62,2.62,0,0,1,18.06,16a2.85,2.85,0,0,1-3,2.73V17.4l-2,1.82,2,1.81V19.67a3.81,3.81,0,0,0,4-3.64,3.43,3.43,0,0,0-.61-1.93ZM17.6.84a6,6,0,1,0,6,6A6,6,0,0,0,17.6.84Zm0,10.8a4.8,4.8,0,1,1,4.8-4.8A4.81,4.81,0,0,1,17.6,11.64ZM7.8,15.91H4.2v1.2H7.8Zm1.8-4.8-.9.9-.9-.9-.9.9-.9-.9-.9.9-.9-.9-.9.9-.9-.9v8.4H.6v1.8a1.79,1.79,0,0,0,1.8,1.8H9.6a1.79,1.79,0,0,0,1.8-1.8V11.11l-.9.9ZM7.8,21.91H2.4a.6.6,0,0,1-.6-.6v-.6h6Zm2.4-.6a.6.6,0,0,1-1.2,0v-1.8H3.6v-6.6h6.6Z"/></svg>