<svg id="Layer_1" data-name="Layer 1" xmlns="http://www.w3.org/2000/svg" width="24.205" height="21.2" viewBox="0 0 32 32"><defs><style>.cls-1{fill:#9c9b9b;}</style></defs><title>close shopping list 2</title><path class="cls-1" d="M28.25,23.82H11.81l-.34-1.5,14.89-1.83a.51.51,0,0,0,.43-.41L28.74,9.71a.53.53,0,0,0-.11-.42.51.51,0,0,0-.38-.18H8.4L7.71,6.18a.49.49,0,0,0-.48-.39H2.3a.5.5,0,0,0,0,1H6.83L10.36,22v0h0l.56,2.43a.5.5,0,0,0,.49.39H28.25a.51.51,0,0,0,.5-.5A.5.5,0,0,0,28.25,23.82Zm-.61-13.71-1.77,9.43-14.63,1.8L8.74,10.11Z"/><path class="cls-1" d="M15.17,25.67A2.23,2.23,0,1,0,17.4,27.9,2.23,2.23,0,0,0,15.17,25.67Zm0,3.46A1.23,1.23,0,1,1,16.4,27.9,1.23,1.23,0,0,1,15.17,29.13Z"/><path class="cls-1" d="M24.1,25.67a2.23,2.23,0,1,0,2.23,2.23A2.23,2.23,0,0,0,24.1,25.67Zm0,3.46a1.23,1.23,0,1,1,1.23-1.23A1.23,1.23,0,0,1,24.1,29.13Z"/><path class="cls-1" d="M12.54,5.46h9L18.8,7.68l0,0a.3.3,0,0,0,0,.49.47.47,0,0,0,.31.11.42.42,0,0,0,.31-.13L23,5.26a.31.31,0,0,0,0-.52L19.42,1.82h0a.51.51,0,0,0-.62,0h0a.32.32,0,0,0,0,.51l2.72,2.22h-9a.49.49,0,0,0-.48.46A.47.47,0,0,0,12.54,5.46Z"/></svg>