<svg xmlns="http://www.w3.org/2000/svg" width="20" height="20" viewBox="0 0 20 20">
  <g id="Group_1008" data-name="Group 1008" transform="translate(-71.001 -397)">
    <path id="Path_169" data-name="Path 169" d="M222.877,154.7a.479.479,0,0,0-.479.479v9.046a.479.479,0,1,0,.957,0v-9.046A.479.479,0,0,0,222.877,154.7Zm0,0" transform="translate(-140.754 249.231)"/>
    <path id="Path_170" data-name="Path 170" d="M104.877,154.7a.479.479,0,0,0-.479.479v9.046a.479.479,0,1,0,.957,0v-9.046A.479.479,0,0,0,104.877,154.7Zm0,0" transform="translate(-28.4 249.231)"/>
    <path id="Path_171" data-name="Path 171" d="M1.356,5.953v11.54a2.554,2.554,0,0,0,.7,1.782A2.381,2.381,0,0,0,3.768,20h9.055a2.381,2.381,0,0,0,1.71-.724,2.554,2.554,0,0,0,.7-1.782V5.953a1.791,1.791,0,0,0,1.344-1.961,1.816,1.816,0,0,0-1.813-1.558h-2.45V1.849A1.82,1.82,0,0,0,11.764.536,1.9,1.9,0,0,0,10.421,0H6.171A1.9,1.9,0,0,0,4.828.536a1.82,1.82,0,0,0-.552,1.313v.585H1.825A1.816,1.816,0,0,0,.012,3.992,1.791,1.791,0,0,0,1.356,5.953ZM12.823,19.062H3.768a1.5,1.5,0,0,1-1.455-1.569V5.994H14.278v11.5a1.5,1.5,0,0,1-1.455,1.569ZM5.233,1.849A.892.892,0,0,1,5.5,1.2.932.932,0,0,1,6.171.935h4.25a.932.932,0,0,1,.666.263.892.892,0,0,1,.272.651v.585H5.233ZM1.825,3.371H14.766a.843.843,0,1,1,0,1.686H1.825a.843.843,0,1,1,0-1.686Zm0,0" transform="translate(71.004 397.002)"/>
    <path id="Path_172" data-name="Path 172" d="M163.877,154.7a.479.479,0,0,0-.479.479v9.046a.479.479,0,1,0,.957,0v-9.046A.479.479,0,0,0,163.877,154.7Zm0,0" transform="translate(-84.576 249.231)"/>
  </g>
</svg>
