<svg xmlns="http://www.w3.org/2000/svg" width="20" height="20" viewBox="0 0 20 20">
    <path stroke="#fbfcfe" stroke-width="0.4px" d="M17.7.776a2.754 2.754 0 0 0-3.892 0l-.974.98L2.466 12.121l-.022.022c-.005.005-.005.011-.011.011-.011.017-.028.033-.038.049s-.006.006-.006.011-.016.028-.028.044-.005.011-.011.017-.011.028-.017.044-.005.005-.005.011l-2.3 6.92a.542.542 0 0 0 .132.561.554.554 0 0 0 .391.16.649.649 0 0 0 .176-.028l6.913-2.307c.005 0 .005 0 .011-.005a.2.2 0 0 0 .049-.022.02.02 0 0 0 .011-.005c.016-.011.038-.022.055-.033s.033-.027.05-.038.011-.006.011-.011.017-.011.022-.022L19.194 6.154a2.754 2.754 0 0 0 0-3.892zM7.464 16.343l-3.83-3.831 9.588-9.589 3.831 3.831zm-4.37-2.813l3.347 3.347-5.026 1.673zm15.324-8.147l-.584.589L14 2.141l.589-.589a1.651 1.651 0 0 1 2.334 0l1.5 1.5a1.657 1.657 0 0 1-.005 2.334zm0 0" transform="translate(.209 .408)"/>
</svg>
