<svg xmlns="http://www.w3.org/2000/svg" width="24.303" height="25.004" viewBox="0 0 24.303 25.004">
    <defs>
        <style>
            .cls-1{stroke:#031718;stroke-width:.3px}
        </style>
    </defs>
    <g id="export_2_" transform="translate(-6.97 .15)">
        <g id="Group_1361" transform="translate(7.12)">
            <g id="Group_1360">
                <path id="Path_313" d="M30.979 20.39l-3.266-3.266a1.2 1.2 0 0 0-2.04.845v.491a.211.211 0 0 1-.211.211h-.33V5.069a.492.492 0 0 0-.144-.348L20.41.144A.492.492 0 0 0 20.062 0H7.612a.492.492 0 0 0-.492.492v23.72a.492.492 0 0 0 .492.492h17.027a.492.492 0 0 0 .492-.492v-1.407h.33a.211.211 0 0 1 .211.211v.491a1.195 1.195 0 0 0 2.04.845l3.266-3.266a.492.492 0 0 0 0-.7zM20.555 1.68l2.9 2.9h-2.9zm3.592 22.04H8.1V.984h11.47v4.085a.492.492 0 0 0 .492.492h4.084v13.11h-1.033a.492.492 0 0 0-.492.492v3.149a.492.492 0 0 0 .492.492h1.033zm2.87-.063a.211.211 0 0 1-.36-.149v-.491a1.2 1.2 0 0 0-1.2-1.2h-1.851v-2.161h1.856a1.2 1.2 0 0 0 1.2-1.2v-.491a.211.211 0 0 1 .36-.149l2.918 2.918z" class="cls-1" transform="translate(-7.12)"/>
                <path id="Path_314" d="M68.112 154.984h8.144a.492.492 0 0 0 0-.984h-8.144a.492.492 0 1 0 0 .984z" class="cls-1" transform="translate(-64.643 -146.422)"/>
                <path id="Path_315" d="M79.185 220H68.112a.492.492 0 1 0 0 .984h11.073a.492.492 0 1 0 0-.984z" class="cls-1" transform="translate(-64.643 -209.174)"/>
                <path id="Path_316" d="M79.185 286H68.112a.492.492 0 1 0 0 .984h11.073a.492.492 0 1 0 0-.984z" class="cls-1" transform="translate(-64.643 -271.926)"/>
                <path id="Path_317" d="M79.185 352H68.112a.492.492 0 1 0 0 .984h11.073a.492.492 0 1 0 0-.984z" class="cls-1" transform="translate(-64.643 -334.678)"/>
                <path id="Path_318" d="M272.195 154h-1.083a.492.492 0 1 0 0 .984h1.083a.492.492 0 0 0 0-.984z" class="cls-1" transform="translate(-257.653 -146.422)"/>
            </g>
        </g>
    </g>
</svg>
