<?xml version="1.0" encoding="UTF-8"?>
<svg id="Layer_1" data-name="Layer 1" xmlns="http://www.w3.org/2000/svg" width="25" height="25" viewBox="0 0 32 32">
<defs>
<style>.cls-1{fill:#9c9b9b;}</style></defs><title>jayeze mazad</title>
<path class="cls-1" d="M13.31,12.15h2.56v2.51a.51.51,0,0,0,.5.5.5.5,0,0,0,.5-.5V12.15h2.57a.5.5,0,0,0,0-1H16.87V8.39a.5.5,0,0,0-.5-.5.5.5,0,0,0-.5.5v2.76H13.31a.5.5,0,0,0,0,1Z"/>
<path class="cls-1" d="M16.24,18.55a7,7,0,1,0-7-7A7,7,0,0,0,16.24,18.55Zm0-13a6,6,0,1,1-6,6A6,6,0,0,1,16.24,5.5Z"/>
<path class="cls-1" d="M26.79,28.05,22.73,18.6a.18.18,0,0,0-.05-.07,9.54,9.54,0,1,0-12.56,0,.51.51,0,0,0-.24.24L6.05,27.92a.53.53,0,0,0,.09.54.51.51,0,0,0,.52.14l3.13-1,1.34,3a.49.49,0,0,0,.45.29h0a.49.49,0,0,0,.45-.29l4.14-9,4.33,9.22a.49.49,0,0,0,.45.29.45.45,0,0,0,.46-.29l1.43-3.13,3.33,1a.5.5,0,0,0,.52-.14A.5.5,0,0,0,26.79,28.05ZM7.84,11.39a8.54,8.54,0,1,1,8.53,8.54A8.55,8.55,0,0,1,7.84,11.39ZM11.59,29.2l-1.07-2.4a.5.5,0,0,0-.61-.27l-2.52.79,3.42-8.12s0-.05,0-.07a9.47,9.47,0,0,0,4.6,1.75Zm11.13-2.59a.49.49,0,0,0-.6.27L21,29.43,17,20.9a9.49,9.49,0,0,0,4.93-1.74l3.55,8.29Z"/>
</svg>