<svg id="Layer_1" data-name="Layer 1" xmlns="http://www.w3.org/2000/svg" width="20pt" height="20pt" viewBox="0 0 32 32"><defs><style>.cls-1{fill:#9c9b9b;}</style></defs><title>forje mazad</title><path class="cls-1" d="M26.42,10.4l1.82-1.68,0-.14a2.26,2.26,0,0,0-.34-1.95A2,2,0,0,0,26,6.17l-.14,0L24,7.82a12.78,12.78,0,0,0-5.85-2.65V4.56h1.65a.5.5,0,0,0,.5-.5V1.52a.5.5,0,0,0-.5-.5H12.45a.5.5,0,0,0-.5.5V4.08a.51.51,0,0,0,.15.36.56.56,0,0,0,.36.14l1.77,0,0,.58A12.78,12.78,0,1,0,26.42,10.4Zm-.08-3.26a1,1,0,0,1,.86.17,1.14,1.14,0,0,1,.14.88L25.82,9.6a13.77,13.77,0,0,0-1.05-1.11ZM15.21,4a.5.5,0,0,0-.5-.47h0L13,3.56V2h6.37V3.56H17.67a.5.5,0,0,0-.5.5V5C16.78,5,16.39,5,16,5s-.5,0-.75,0ZM16,29.49A11.76,11.76,0,1,1,23.81,9l1.46,1.56a11.63,11.63,0,0,1,2.49,7.2A11.77,11.77,0,0,1,16,29.49Z"/><path class="cls-1" d="M16.13,8A9.89,9.89,0,1,0,26,17.84,9.9,9.9,0,0,0,16.13,8ZM16.5,26.7V24.77a.5.5,0,1,0-1,0v1.92a8.88,8.88,0,0,1-8.21-8.18H8.93a.5.5,0,0,0,0-1H7.27A8.88,8.88,0,0,1,15.5,9v2a.5.5,0,0,0,1,0V9A8.88,8.88,0,0,1,25,17.51H23.18a.5.5,0,0,0,0,1H25A8.87,8.87,0,0,1,16.5,26.7Z"/><path class="cls-1" d="M19.82,17.51h-3V14.32a.5.5,0,0,0-.5-.5.51.51,0,0,0-.5.5v3.19h-3a.5.5,0,0,0,0,1h3v2.9a.5.5,0,0,0,.5.5.5.5,0,0,0,.5-.5v-2.9h3a.5.5,0,0,0,0-1Z"/></svg>