<svg id="Layer_1" data-name="Layer 1" xmlns="http://www.w3.org/2000/svg" viewBox="0 0 24 24" width="24" height="24"><defs><style>.cls-1{fill:none;}</style></defs><title>gtin</title><rect class="cls-1" width="24" height="24"/><path d="M6.26,15.37h0A1.16,1.16,0,0,0,7,14.28a1.12,1.12,0,0,0-.4-.92A2.07,2.07,0,0,0,5.25,13,7.14,7.14,0,0,0,4,13.11v4.32h.94V15.71H5.2c.4,0,.58.15.7.7a5.38,5.38,0,0,0,.29,1h1c-.08-.17-.2-.74-.33-1.24A1.1,1.1,0,0,0,6.26,15.37ZM5.3,15H4.92v-1.2a1.85,1.85,0,0,1,.43,0c.44,0,.71.2.71.6S5.77,15,5.3,15ZM2.2,17.43h.95V13.05H2.2Zm6-6.5V7.38H9.39V6.55H6.14v.83H7.28v3.55ZM4.31,11a4.41,4.41,0,0,0,1.41-.25V8.42H4.15v.77H4.8v.92a1.26,1.26,0,0,1-.47.06A1.29,1.29,0,0,1,3,8.74,1.3,1.3,0,0,1,4.4,7.32a2.14,2.14,0,0,1,1,.19l.2-.8A2.92,2.92,0,0,0,4.41,6.5,2.22,2.22,0,0,0,2,8.79a2.27,2.27,0,0,0,.59,1.6A2.35,2.35,0,0,0,4.31,11Zm5.5,2.83a1.81,1.81,0,0,1,.8.16l.2-.78a2.25,2.25,0,0,0-1-.2,2.19,2.19,0,0,0-2.3,2.32,2,2,0,0,0,2.21,2.2,2.62,2.62,0,0,0,1.08-.19l-.14-.78a2.08,2.08,0,0,1-.8.14,1.28,1.28,0,0,1-1.35-1.43A1.29,1.29,0,0,1,9.81,13.8Zm12-4.86L20.63,7.67a.52.52,0,0,0-.37-.16.5.5,0,0,0-.37.16l-.95,1,1.95,2,1-1A.56.56,0,0,0,21.85,8.94Zm-9.24,6.29v2h2l5.77-6-1.95-2Zm1.52.95h-.48v-.5l4.73-4.91.48.5ZM12.54,7.69a15.72,15.72,0,0,0,.73,1.55l.9,1.69h1V6.55h-.88V7.82a17.62,17.62,0,0,0,.08,1.83h0a15.69,15.69,0,0,0-.69-1.5l-.88-1.6H11.68v4.38h.87V9.61c0-.72,0-1.34,0-1.92ZM9.9,10.93h.95V6.55H9.9Z"/></svg>