<svg xmlns="http://www.w3.org/2000/svg" width="20.479" height="20.479" viewBox="0 0 20.479 20.479">
    <defs>
        <clipPath id="clip-path">
            <path fill="none" d="M0 0H20.479V669.479H0z"/>
        </clipPath>
        <style>
            .cls-3{stroke:#fff;stroke-width:.4px}
        </style>
    </defs>
    <g id="chain" clip-path="url(#clip-path)">
        <g id="chain-2" transform="translate(.199 .2)">
            <path id="Path_691" d="M18.789 1.29a4.417 4.417 0 0 0-6.239 0L9.416 4.424a4.4 4.4 0 0 0-1.249 3.734 4.4 4.4 0 0 0-3.733 1.248L1.29 12.55a4.412 4.412 0 0 0 6.24 6.239l3.143-3.143a4.4 4.4 0 0 0 1.249-3.733 4.4 4.4 0 0 0 3.733-1.249l3.134-3.134a4.417 4.417 0 0 0 0-6.239zM9.841 14.814L6.7 17.957a3.235 3.235 0 0 1-4.576-4.576l3.143-3.143a3.23 3.23 0 0 1 2.6-.932l-4.913 4.907a2.059 2.059 0 0 0 2.912 2.912l4.908-4.908a3.227 3.227 0 0 1-.933 2.6zm-4.169-.407a2.047 2.047 0 0 0 .765.483l-1.4 1.4a.882.882 0 0 1-1.248-1.248l1.4-1.4a2.047 2.047 0 0 0 .483.765zm2.08-.832A.882.882 0 0 1 6.5 12.327L12.327 6.5a.882.882 0 0 1 1.248 1.248zm5.891-8.386l1.4-1.4a.882.882 0 0 1 1.248 1.248l-1.4 1.4a2.055 2.055 0 0 0-1.248-1.248zM17.957 6.7l-3.133 3.131a3.227 3.227 0 0 1-2.6.933l4.9-4.9a2.059 2.059 0 0 0-2.912-2.912l-4.9 4.9a3.23 3.23 0 0 1 .932-2.6l3.134-3.134A3.235 3.235 0 0 1 17.957 6.7z" class="cls-3"/>
        </g>
    </g>
</svg>
