<svg xmlns="http://www.w3.org/2000/svg" width="24" height="24" viewBox="0 0 24 24">
    <path d="M20.484 6.047h-.656V3.516A3.52 3.52 0 0 0 16.313 0H7.688a3.52 3.52 0 0 0-3.516 3.516v2.531h-.656A3.52 3.52 0 0 0 0 9.563v5.625A3.52 3.52 0 0 0 3.516 18.7h.656v3.188A2.112 2.112 0 0 0 6.281 24h11.438a2.112 2.112 0 0 0 2.109-2.109V18.7h.656A3.52 3.52 0 0 0 24 15.188V9.563a3.52 3.52 0 0 0-3.516-3.516zM5.578 3.516a2.112 2.112 0 0 1 2.11-2.11h8.625a2.112 2.112 0 0 1 2.109 2.109v2.532H5.578zm12.844 18.375a.7.7 0 0 1-.7.7H6.281a.7.7 0 0 1-.7-.7v-6.938h12.841zm4.172-6.7a2.112 2.112 0 0 1-2.11 2.109h-.656v-2.347h.422a.7.7 0 0 0 0-1.406H3.75a.7.7 0 0 0 0 1.406h.422V17.3h-.656a2.112 2.112 0 0 1-2.109-2.109V9.563a2.112 2.112 0 0 1 2.109-2.11h16.968a2.112 2.112 0 0 1 2.109 2.109z"/>
    <path d="M205.449 353H201.7a.7.7 0 1 0 0 1.405h3.747a.7.7 0 1 0 0-1.405z" transform="translate(-191.576 -336.452)"/>
    <path d="M205.449 417H201.7a.7.7 0 1 0 0 1.405h3.747a.7.7 0 1 0 0-1.405z" transform="translate(-191.576 -397.449)"/>
    <path d="M67.951 193H65.7a.7.7 0 1 0 0 1.405h2.248a.7.7 0 1 0 0-1.405z" transform="translate(-61.956 -183.953)"/>
</svg>
