<svg xmlns="http://www.w3.org/2000/svg" viewBox="0 0 24 24" width="24" height="24">
<defs><style>.cls-1{fill:none;}</style></defs>
<title>ertebate kala ba anbar 5</title>
<g id="Layer_2" data-name="Layer 2">
<g id="Layer_1-2" data-name="Layer 1">
<rect class="cls-1" width="24" height="24"/>
<path d="M14.08,6.46h4.38V9.09H17.27l.85.94L19,11l.85-.94.85-.94H19.46V6a.5.5,0,0,0-.5-.5H14.08a.5.5,0,0,0-.5.5A.51.51,0,0,0,14.08,6.46ZM10,18.5H5.67V15.18h1.2L6,14.24l-.85-1-.85,1-.85.94h1.2V19a.5.5,0,0,0,.5.5H10a.5.5,0,0,0,0-1ZM11.94,5.3a1.18,1.18,0,0,0-.18-.61,1.38,1.38,0,0,0-.44-.46l-.62-.37L8.1,2.4a5,5,0,0,0-.61-.31,1.31,1.31,0,0,0-1.19,0c-.18.08-.4.2-.61.32L3.09,3.85c-.24.14-.45.25-.61.36A1.41,1.41,0,0,0,2,4.67a1.65,1.65,0,0,0-.18.61v4.2A1.48,1.48,0,0,0,2,10.1a1.49,1.49,0,0,0,.45.45,5,5,0,0,0,.63.37l2.61,1.45.61.33a1.38,1.38,0,0,0,1.19,0l.59-.32,2.64-1.47c.27-.14.46-.25.63-.36a1.75,1.75,0,0,0,.44-.46A1.35,1.35,0,0,0,12,9.47V6C12,5.73,12,5.49,11.94,5.3ZM3.5,4.62,6.12,3.17a4.07,4.07,0,0,1,.55-.28h0a.57.57,0,0,1,.25-.08.46.46,0,0,1,.25.08,5.77,5.77,0,0,1,.55.28l.64.36L4.53,5.66,3.06,4.88Zm3,7.19-.34-.08L3.5,10.21l-.56-.33c-.18-.12-.17-.14-.19-.19a.46.46,0,0,1-.07-.26V5.66l3.75,2Zm.43-4.88L5.43,6.15,9.2,4l1.05.59.47.28Zm4.24,2.52a.48.48,0,0,1-.07.26.62.62,0,0,1-.18.18l-.57.33L7.57,11.73l-.26.15V7.67l3.79-2ZM21.79,21.26v-9a.57.57,0,0,0-.55-.57H13.39a.57.57,0,0,0-.56.57v3.64l-.94.81a.57.57,0,0,0-.19.42v4.1a.56.56,0,0,0,.56.55h9A.55.55,0,0,0,21.79,21.26Zm-4.48-.57H15.6V19H14.51v1.71H12.8V17.42l2.27-2,2.24,2Zm3.36,0H18.43V17.16a.53.53,0,0,0-.18-.42l-2.81-2.45a.56.56,0,0,0-.73,0L14,15V12.84h6.72Z"/>
</g>
</g>
</svg>
