<svg xmlns="http://www.w3.org/2000/svg" width="24" height="24" viewBox="0 0 24 24">
    <g>
        <g>
            <path d="M33.293 10.578a.928.928 0 0 0-1.068-.742.9.9 0 0 0-.774 1.024v.016a9.893 9.893 0 0 1-8.4 11.352 10.231 10.231 0 0 1-11.841-8.055 9.893 9.893 0 0 1 8.4-11.352 10.53 10.53 0 0 1 9.29 3.057L24.774 7.2a.886.886 0 0 0-.59 1.13.942.942 0 0 0 1.179.566l5.595-1.788a.9.9 0 0 0 .638-.848V.894a.933.933 0 0 0-1.865 0V4.16a12.368 12.368 0 0 0-16.965.407 11.172 11.172 0 0 0 .425 16.265 12.368 12.368 0 0 0 16.965-.407 11.2 11.2 0 0 0 3.137-9.847z" transform="translate(-9.461 2.242) translate(9.461) translate(-9.461 -2.242)"/>
        </g>
    </g>
</svg>
