<svg id="Layer_1" data-name="Layer 1" xmlns="http://www.w3.org/2000/svg" width="25.586" height="25.578" viewBox="0 0 32 32">
<defs>
<style>.cls-1{fill:none;}.cls-2{fill:#031718;}</style>
</defs>
<title>laghve vagozari</title>
<rect class="cls-1"/>
<path class="cls-2" d="M30.37,20.49H20.5V12.94a1.18,1.18,0,0,0-.33-.81h1.09a1.36,1.36,0,0,0,1.34-.92,1.24,1.24,0,0,0-.48-1.4L12.87,3.13a2.58,2.58,0,0,0-3,0L.63,9.81a1.24,1.24,0,0,0-.48,1.4,1.36,1.36,0,0,0,1.34.92h1.1a1.17,1.17,0,0,0-.34.83V24.43a1,1,0,0,0,.18.58H1.22a1.19,1.19,0,0,0,0,2.37h9.92v2.19a1.6,1.6,0,0,0,1.63,1.57h17.6A1.6,1.6,0,0,0,32,29.57h0V22.05A1.6,1.6,0,0,0,30.37,20.49Zm-11.63,0V12.94a.58.58,0,0,1,1.16,0v7.55Zm-.6-7.55v7.55H12.56v-6.8a4.27,4.27,0,0,0,2.26-1.58h3.65A1.21,1.21,0,0,0,18.14,12.94ZM7.74,9.55a3.6,3.6,0,1,1,3.6,3.6,3.6,3.6,0,0,1-3.6-3.6ZM.86,11a.48.48,0,0,1,.21-.56l9.24-6.68a1.85,1.85,0,0,1,2.13,0l9.24,6.68a.48.48,0,0,1,.21.56.63.63,0,0,1-.63.4h-6a4.3,4.3,0,0,0,.42-1.83,4.35,4.35,0,1,0-8.7,0A4.3,4.3,0,0,0,7.4,11.4H1.49A.63.63,0,0,1,.86,11Zm7,1.15a4.37,4.37,0,0,0,2.33,1.6v10.7a1.17,1.17,0,0,0,.18.58H4.44a1.06,1.06,0,0,0,.17-.58V13a1.23,1.23,0,0,0-.33-.83Zm-5,12.3V13a.59.59,0,0,1,.46-.68.58.58,0,0,1,.68.47A.74.74,0,0,1,4,13V24.43a.58.58,0,0,1-1.16,0ZM1.22,26.78a.58.58,0,0,1-.58-.58.6.6,0,0,1,.58-.59h9.92v1.17Zm9.92-4.73V25a.58.58,0,0,1-.35-.53V13.85a5.11,5.11,0,0,0,.55.05,6.2,6.2,0,0,0,.62-.06V20.7A1.52,1.52,0,0,0,11.14,22.05Zm20.21,7.52a1,1,0,0,1-1,.94H12.77a1,1,0,0,1-1-.94V22.05a1,1,0,0,1,1-.94h17.6a1,1,0,0,1,1,.94Z"/>
<path class="cls-2" d="M28.74,23.31H20.26a.31.31,0,1,0,0,.62h8.48a.31.31,0,0,0,0-.62Z"/>
<path class="cls-2" d="M27.44,25.19H20.26a.31.31,0,1,0,0,.62h7.18a.31.31,0,0,0,0-.62Z"/>
<path class="cls-2" d="M21.93,16.73h6.39L26,19a.36.36,0,0,0,0,.51h0a.36.36,0,0,0,.26.11.35.35,0,0,0,.25-.1l2.93-2.92h0a.25.25,0,0,0,.08-.12.34.34,0,0,0,0-.28.25.25,0,0,0-.08-.12h0l-2.93-2.92a.36.36,0,0,0-.5,0v0a.36.36,0,0,0,0,.51h0L28.32,16H21.93a.36.36,0,0,0,0,.72Z"/>
<path class="cls-2" d="M12.87,10a1.38,1.38,0,0,0-.46-.44,3.84,3.84,0,0,0-.87-.34,2.33,2.33,0,0,1-.79-.35.56.56,0,0,1-.23-.46.65.65,0,0,1,.24-.53,1,1,0,0,1,.68-.19,1,1,0,0,1,.73.23.85.85,0,0,1,.25.51.31.31,0,0,0,.34.25c.12,0,.25-.08.25-.2a1,1,0,0,0-.19-.61,1.4,1.4,0,0,0-.56-.49,1.88,1.88,0,0,0-.56-.16h0V6.94a.26.26,0,0,0-.26-.26h-.09a.26.26,0,0,0-.26.26h0v.3a1.61,1.61,0,0,0-.76.32,1.09,1.09,0,0,0-.42.87,1.08,1.08,0,0,0,.35.79,2.68,2.68,0,0,0,1.1.53,2.88,2.88,0,0,1,.83.35.59.59,0,0,1,.23.51.6.6,0,0,1-.25.52,1.12,1.12,0,0,1-.71.19,1.34,1.34,0,0,1-.8-.23.87.87,0,0,1-.2-.23,1.76,1.76,0,0,1-.15-.44c0-.06-.05-.25-.34-.21a.23.23,0,0,0-.21.25.09.09,0,0,0,0,0,1.23,1.23,0,0,0,.08.38.89.89,0,0,0,.14.25,1.39,1.39,0,0,0,.61.49,2.75,2.75,0,0,0,.49.14v.29a.26.26,0,0,0,.26.26h.09a.26.26,0,0,0,.26-.26h0V11.8h0a1.69,1.69,0,0,0,.89-.32,1,1,0,0,0,.42-.86A1.2,1.2,0,0,0,12.87,10Z"/>
<path class="cls-2" d="M18.08,26.55a1.58,1.58,0,0,0-.56-.53,4.88,4.88,0,0,0-1.06-.42,3,3,0,0,1-1-.42.69.69,0,0,1-.28-.56.76.76,0,0,1,.3-.64,1.49,1.49,0,0,1,1.7.05,1,1,0,0,1,.3.62.38.38,0,0,0,.41.3c.15,0,.31-.1.31-.24A1.2,1.2,0,0,0,18,24a1.62,1.62,0,0,0-.68-.59,2.25,2.25,0,0,0-.67-.2v-.35a.31.31,0,0,0-.3-.32h-.12a.31.31,0,0,0-.31.31h0v.36a1.84,1.84,0,0,0-.92.39,1.3,1.3,0,0,0-.51,1.06,1.22,1.22,0,0,0,.42.94,3.18,3.18,0,0,0,1.33.65,3.29,3.29,0,0,1,1,.43.81.81,0,0,1,.1,1.14.47.47,0,0,1-.1.1,1.41,1.41,0,0,1-.87.23,1.48,1.48,0,0,1-1-.28,1.22,1.22,0,0,1-.24-.27A1.8,1.8,0,0,1,15,27c0-.07-.06-.3-.41-.25a.26.26,0,0,0-.24.37,1.8,1.8,0,0,0,.09.45,3.07,3.07,0,0,0,.17.31,1.72,1.72,0,0,0,.75.58,2.11,2.11,0,0,0,.59.18V29a.31.31,0,0,0,.3.32h.12a.31.31,0,0,0,.31-.31h0v-.3a2,2,0,0,0,1.09-.38,1.27,1.27,0,0,0,.51-1.05A1.25,1.25,0,0,0,18.08,26.55Z"/>
<path class="cls-2" d="M25.12,29.2a.31.31,0,0,1-.22-.09c0-.05-.15-.16-.17-.59h0a1.94,1.94,0,0,1-.92.45,3,3,0,0,1-1.08,0h0a6.56,6.56,0,0,1-1.28.11.22.22,0,0,1-.21-.16.21.21,0,0,1,.2-.24,7.08,7.08,0,0,0,.85-.05h0a.81.81,0,0,1,0-.82.91.91,0,0,1,.83-.46.72.72,0,0,1,.73.71.69.69,0,0,1-.22.52s0,0,0,0h.15A1.82,1.82,0,0,0,24.7,28a.26.26,0,0,1,.29-.06h0a.25.25,0,0,1,.14.2v0s0,0,0,0a1.94,1.94,0,0,0,0,.59s0,0,0,0a6.36,6.36,0,0,0,.94-.89.2.2,0,0,1,.28,0,.22.22,0,0,1,0,.29C26,28.63,25.41,29.2,25.12,29.2Zm-2.07-1.47a.51.51,0,0,0-.45.25.42.42,0,0,0,.06.47.23.23,0,0,0,.07.07h.05c.43,0,.63-.28.63-.49a.32.32,0,0,0-.34-.31Z"/>
</svg>
