<svg id="Layer_1" data-name="Layer 1" xmlns="http://www.w3.org/2000/svg" viewBox="0 0 32 32" width="25.586" height="25.578"><defs><style>.cls-1{fill:none;}.cls-2{fill:#031718;}</style></defs><title>bargasht</title><rect class="cls-1" width="32" height="32"/><path class="cls-2" d="M8.67,20.43A6.35,6.35,0,0,0,7.1,19.8a3.9,3.9,0,0,1-1.42-.62,1.05,1.05,0,0,1-.42-.84,1.13,1.13,0,0,1,.44-1A1.94,1.94,0,0,1,6.93,17a1.89,1.89,0,0,1,1.31.42,1.42,1.42,0,0,1,.45.93.57.57,0,0,0,.62.46.45.45,0,0,0,.46-.37,1.94,1.94,0,0,0-.35-1.1,2.48,2.48,0,0,0-1-.88,3,3,0,0,0-1-.29v-.53a.47.47,0,0,0-.47-.48H6.79a.48.48,0,0,0-.48.48v.46s0,.05,0,.08a2.77,2.77,0,0,0-1.38.58,2,2,0,0,0-.76,1.57,1.83,1.83,0,0,0,.63,1.42,5,5,0,0,0,2,1,4.72,4.72,0,0,1,1.51.64,1.1,1.1,0,0,1,.41.91,1.12,1.12,0,0,1-.45.94A2.09,2.09,0,0,1,7,23.58a2.28,2.28,0,0,1-1.44-.42,1.4,1.4,0,0,1-.36-.41,2.93,2.93,0,0,1-.29-.8c0-.1-.07-.45-.6-.38a.43.43,0,0,0-.36.56,2.08,2.08,0,0,0,.39,1.13,2.67,2.67,0,0,0,1.11.88,3.8,3.8,0,0,0,.89.26s0,0,0,.06v.46a.49.49,0,0,0,.48.48h.15a.48.48,0,0,0,.47-.48v-.48A3,3,0,0,0,9,23.86a1.87,1.87,0,0,0,.76-1.57,2.07,2.07,0,0,0-.27-1.07A2.51,2.51,0,0,0,8.67,20.43Z"/><path class="cls-2" d="M29.5,11.48H28.12L24,4.37a2.43,2.43,0,0,0-4.22,0l-4.11,7.11H2.5A2.5,2.5,0,0,0,0,14V26a2.5,2.5,0,0,0,2.5,2.49h27A2.5,2.5,0,0,0,32,26V14A2.5,2.5,0,0,0,29.5,11.48ZM20.65,4.87a1.45,1.45,0,0,1,2.5,0l5.57,9.65a1.44,1.44,0,0,1-1.25,2.16H16.33a1.44,1.44,0,0,1-1.25-2.16ZM31,26a1.5,1.5,0,0,1-1.5,1.49H2.5A1.5,1.5,0,0,1,1,26V14a1.5,1.5,0,0,1,1.5-1.5H15.1L14.22,14a2.37,2.37,0,0,0,0,2.44,2.4,2.4,0,0,0,2.11,1.22H27.47a2.4,2.4,0,0,0,2.11-1.22,2.37,2.37,0,0,0,0-2.44l-.88-1.54h.8A1.5,1.5,0,0,1,31,14Z"/><path class="cls-2" d="M25.26,19.06H14.52a.47.47,0,1,0,0,.94H25.26a.47.47,0,1,0,0-.94Z"/><path class="cls-2" d="M24.7,23a9.41,9.41,0,0,1-1.46,1.38,0,0,0,0,1,0,0,3.16,3.16,0,0,1-.05-.91v-.1A.34.34,0,0,0,23,23h0a.4.4,0,0,0-.44.08A2.8,2.8,0,0,1,21,24l-.23,0s0,0,0,0a1.07,1.07,0,0,0,.34-.81A1.12,1.12,0,0,0,20,22.1a1.45,1.45,0,0,0-1.29.72,1.26,1.26,0,0,0,.06,1.27s0,0,0,0a12.48,12.48,0,0,1-1.31.07.3.3,0,0,0-.3.36.31.31,0,0,0,.32.26,9.88,9.88,0,0,0,2-.17h0a4.42,4.42,0,0,0,1.66,0,2.94,2.94,0,0,0,1.43-.68s0,0,0,0c0,.68.19.84.26.91a.47.47,0,0,0,.34.16c.46,0,1.35-.89,2-1.63A.31.31,0,0,0,24.7,23Zm-5.16,1h-.08a.38.38,0,0,1-.11-.11.67.67,0,0,1-.09-.73.78.78,0,0,1,.69-.39h0a.49.49,0,0,1,.53.47C20.51,23.53,20.2,23.91,19.54,24Z"/><path class="cls-2" d="M21.9,13.11a.5.5,0,0,0,.5-.5V7.44a.5.5,0,0,0-1,0v5.17A.5.5,0,0,0,21.9,13.11Z"/><path class="cls-2" d="M21.9,14.86a.59.59,0,1,0-.59-.59A.59.59,0,0,0,21.9,14.86Z"/></svg>
