<svg id="Layer_1" data-name="Layer 1" xmlns="http://www.w3.org/2000/svg" xmlns:xlink="http://www.w3.org/1999/xlink" viewBox="0 0 24 24" width="24" height="24">
<defs><style>.cls-1{fill:none;}.cls-2{fill:#031718;}</style>
</defs><title>enteghal beyne sandogh</title>
<g class="cls-2">
<path d="M21.71,10.27h-8v-8A1.3,1.3,0,0,0,12.44,1H2.29A1.3,1.3,0,0,0,1,2.3V12.44a1.3,1.3,0,0,0,1.3,1.3h8v8a1.3,1.3,0,0,0,1.3,1.3H21.71A1.3,1.3,0,0,0,23,21.71V11.56A1.29,1.29,0,0,0,21.71,10.27ZM10.26,12.91h-8a.46.46,0,0,1-.46-.47V2.3a.46.46,0,0,1,.46-.47H12.44a.47.47,0,0,1,.47.47v8H12.3V3.52a1.08,1.08,0,0,0-1.08-1.08H3.52A1.08,1.08,0,0,0,2.43,3.52V4.57H2.1V5.83h.33V9H2.1v1.27h.33v1A1.08,1.08,0,0,0,3.52,12.3h6.74Zm0-1.43H3.52a.26.26,0,0,1-.27-.26V3.52a.26.26,0,0,1,.27-.26h7.7a.26.26,0,0,1,.26.26v6.75A1.3,1.3,0,0,0,10.26,11.48ZM22.17,21.71a.46.46,0,0,1-.46.47H11.56a.47.47,0,0,1-.47-.47V11.56a.47.47,0,0,1,.47-.47H21.71a.46.46,0,0,1,.46.47Z"/><path d="M8.72,18.41H5.34V16.34h.87l-1.36-1.5L3.52,16.32h1v2.45a.4.4,0,0,0,.39.4H8.72a.4.4,0,0,0,.4-.4A.41.41,0,0,0,8.72,18.41Z"/><path d="M15.49,5.56h3.38V7.63H18l1.36,1.5L20,8.39l.67-.74h-1V5.2a.39.39,0,0,0-.39-.4H15.49a.38.38,0,1,0,0,.76Z"/><path d="M18.19,17.88a2,2,0,0,0,.38-1.15,2,2,0,0,0-.42-1.22l1-1.2a.4.4,0,0,0,0-.57.36.36,0,0,0-.3-.11.39.39,0,0,0-.28.15l-1,1.17a2,2,0,0,0-1.86-.07l-.95-1.13a.42.42,0,0,0-.59-.05A.4.4,0,0,0,14,14a.37.37,0,0,0,.1.29L15,15.37a2,2,0,0,0-.52,1.36A2,2,0,0,0,14.94,18l-.92,1a.43.43,0,0,0,.07.6.41.41,0,0,0,.25.09.45.45,0,0,0,.32-.15l.92-1.06a2.08,2.08,0,0,0,2-.08l1,1.1a.43.43,0,0,0,.57,0,.41.41,0,0,0,.15-.29.46.46,0,0,0-.11-.3ZM16.52,18a1.27,1.27,0,1,1,1.27-1.27A1.27,1.27,0,0,1,16.52,18Z"/><path d="M8.93,8.62A2,2,0,0,0,9.3,7.46a2,2,0,0,0-.42-1.22l1-1.19a.43.43,0,0,0,0-.58.42.42,0,0,0-.3-.1.4.4,0,0,0-.29.14l-1,1.18a2,2,0,0,0-1.86-.08l-1-1.13a.42.42,0,0,0-.27-.14.41.41,0,0,0-.31.09.43.43,0,0,0-.15.29.41.41,0,0,0,.1.3L5.74,6.1a2,2,0,0,0-.52,1.36,2.06,2.06,0,0,0,.45,1.29L4.76,9.8a.43.43,0,0,0,.06.6.57.57,0,0,0,.26.08.44.44,0,0,0,.31-.14l.93-1.07a2.06,2.06,0,0,0,2-.08l1,1.1a.42.42,0,0,0,.57,0,.42.42,0,0,0,.14-.29A.42.42,0,0,0,10,9.73Zm-1.68.11A1.27,1.27,0,1,1,8.52,7.46,1.27,1.27,0,0,1,7.25,8.73Z"/><path d="M20.48,11.7h-7.7a1.09,1.09,0,0,0-1.09,1.08v1.05h-.33V15.1h.33v3.14h-.33v1.28h.33v1a1.08,1.08,0,0,0,1.09,1.08h7.7a1.08,1.08,0,0,0,1.09-1.08V12.78A1.09,1.09,0,0,0,20.48,11.7Zm.26,8.79a.26.26,0,0,1-.26.26h-7.7a.26.26,0,0,1-.26-.26V12.78a.26.26,0,0,1,.26-.25h7.7a.26.26,0,0,1,.26.25Z"/></g></svg>
