<svg id="Layer_1" data-name="Layer 1" xmlns="http://www.w3.org/2000/svg"  width="25.586" height="25.578" viewBox="0 0 32 32">
<defs>
<style>.cls-1{fill:none;}.cls-2{fill:#031718;}</style>
</defs>
<title>vosul</title>
<rect class="cls-1" />
<path class="cls-2" d="M17.78,10.19H9.25a.32.32,0,0,1-.11-.63h8.64a.32.32,0,1,1,.11.63Z"/><path class="cls-2" d="M16.47,12.09H9.25a.32.32,0,0,1-.11-.63.2.2,0,0,1,.11,0h7.22a.32.32,0,1,1,.11.63Z"/>
<path class="cls-2" d="M30.25,24.27H11.38a1.72,1.72,0,0,1-1.74-1.7h0V14.44a1.72,1.72,0,0,1,1.74-1.7H30.25A1.72,1.72,0,0,1,32,14.43h0v8.13a1.72,1.72,0,0,1-1.74,1.7ZM11.38,13.42a1,1,0,0,0-1.05.95v8.18a1,1,0,0,0,1,1H30.25a1,1,0,0,0,1.05-.95V14.44a1,1,0,0,0-1-1h-.05Z"/>
<path class="cls-2" d="M9.88,17.32H9.81v-.75h.06a3.85,3.85,0,0,0,3.83-3.81h.75A4.61,4.61,0,0,1,9.88,17.32Z"/>
<path class="cls-2" d="M31.63,17.32a4.59,4.59,0,0,1-4.57-4.55h.74a3.87,3.87,0,0,0,3.83,3.81h.06v.75Z"/>
<path class="cls-2" d="M13.71,24.06a3.88,3.88,0,0,0-1.16-2.72,4,4,0,0,0-2.73-1.09V19.5a4.46,4.46,0,0,1,3.26,1.3A4.58,4.58,0,0,1,14.46,24Z"/>
<path class="cls-2" d="M27.12,24.12a4.61,4.61,0,0,1,1.29-3.28,4.52,4.52,0,0,1,3.22-1.41v.76A3.79,3.79,0,0,0,29,21.36a3.87,3.87,0,0,0-1.08,2.75Z"/>
<path class="cls-2" d="M21,22.58a3.94,3.94,0,1,1,3.9-4v0A3.93,3.93,0,0,1,21,22.58Zm0-7.11a3.18,3.18,0,1,0,3.15,3.21v0A3.15,3.15,0,0,0,21,15.47Z"/>
<path class="cls-2" d="M10,17.6H1.37A1.37,1.37,0,0,1,0,16.23H0v-8A1.38,1.38,0,0,1,1.33,6.79H19.8a1.38,1.38,0,0,1,1.37,1.39h0v4.9h-.75V8.18a.64.64,0,0,0-.62-.63H1.37a.64.64,0,0,0-.62.63v8a.62.62,0,0,0,.62.62H10Z"/>
<path class="cls-2" d="M6.33,12.71a1.22,1.22,0,0,0-.46-.44A3.71,3.71,0,0,0,5,11.92a2.29,2.29,0,0,1-.79-.34A.59.59,0,0,1,4,11.12a.66.66,0,0,1,.24-.54,1.12,1.12,0,0,1,.68-.19,1.08,1.08,0,0,1,.73.23.8.8,0,0,1,.25.52.3.3,0,0,0,.34.25c.12,0,.25-.09.25-.2a1,1,0,0,0-.19-.61,1.34,1.34,0,0,0-.56-.49,1.67,1.67,0,0,0-.55-.16v-.3a.26.26,0,0,0-.26-.26H4.82a.26.26,0,0,0-.26.26v.26a.09.09,0,0,0,0,0,1.53,1.53,0,0,0-.77.32,1.08,1.08,0,0,0-.42.87,1,1,0,0,0,.35.78,2.88,2.88,0,0,0,1.1.54,2.47,2.47,0,0,1,.83.35.59.59,0,0,1,.23.51.6.6,0,0,1-.24.51,1.16,1.16,0,0,1-.72.2,1.25,1.25,0,0,1-.8-.24.67.67,0,0,1-.19-.23,1.29,1.29,0,0,1-.16-.44c0-.06,0-.25-.34-.21a.25.25,0,0,0-.2.31,1.55,1.55,0,0,0,.08.37,1,1,0,0,0,.14.26,1.49,1.49,0,0,0,.61.48,2.07,2.07,0,0,0,.5.15,0,0,0,0,0,0,0v.26a.26.26,0,0,0,.26.26h.09a.26.26,0,0,0,.26-.26V14.5h0a1.72,1.72,0,0,0,.89-.32,1.06,1.06,0,0,0,.43-.87A1.13,1.13,0,0,0,6.33,12.71Z"/>
<path class="cls-2" d="M22.28,19.11a1.14,1.14,0,0,0-.42-.39,2.72,2.72,0,0,0-.77-.31,2,2,0,0,1-.7-.31.5.5,0,0,1-.2-.41.57.57,0,0,1,.21-.47.93.93,0,0,1,.6-.17,1,1,0,0,1,.65.2.69.69,0,0,1,.22.46.28.28,0,0,0,.3.22.21.21,0,0,0,.23-.18,1,1,0,0,0-.17-.54,1.17,1.17,0,0,0-.5-.43,1.32,1.32,0,0,0-.49-.14v-.26a.23.23,0,0,0-.23-.24h-.07a.24.24,0,0,0-.24.24v.22s0,0,0,0a1.4,1.4,0,0,0-.68.29.94.94,0,0,0-.37.77.92.92,0,0,0,.3.7,2.48,2.48,0,0,0,1,.47,2.3,2.3,0,0,1,.74.32.52.52,0,0,1,.21.45.57.57,0,0,1-.22.46,1.06,1.06,0,0,1-.64.17,1.13,1.13,0,0,1-.71-.21.67.67,0,0,1-.17-.2,1.07,1.07,0,0,1-.14-.39c0-.06,0-.23-.3-.19a.21.21,0,0,0-.18.27,1.22,1.22,0,0,0,.07.33,1.28,1.28,0,0,0,.12.23,1.34,1.34,0,0,0,.55.43,2,2,0,0,0,.44.13v.25a.24.24,0,0,0,.24.24H21a.23.23,0,0,0,.23-.24v-.24a1.45,1.45,0,0,0,.8-.28.92.92,0,0,0,.37-.77A1,1,0,0,0,22.28,19.11Z"/>
<path class="cls-2" d="M24.82,8.54a.32.32,0,0,1,.08-.23.25.25,0,0,1,.38,0l2,2.37,2-2.37a.25.25,0,0,1,.38,0,.36.36,0,0,1,0,.46l-2.18,2.59a.25.25,0,0,1-.38,0L24.9,8.77A.34.34,0,0,1,24.82,8.54Z"/>
<path class="cls-2" d="M17.52,5.09a.38.38,0,0,1,.23-.34c.18-.08,4.44-2,7.38-.12,1.62,1,2.49,2.94,2.58,5.74a.38.38,0,0,1-.75,0c-.08-2.53-.83-4.25-2.23-5.13-2.59-1.62-6.64.16-6.68.18a.37.37,0,0,1-.49-.19A.29.29,0,0,1,17.52,5.09Z"/></svg>
