<svg xmlns="http://www.w3.org/2000/svg" width="23.97" height="23.97" viewBox="0 0 23.97 23.97"><title>reside marjooeeeeee</title><path d="M23.15,15.91a.6.6,0,0,0-.79.31,11,11,0,0,1-10.15,6.6A10.92,10.92,0,0,1,1.2,12a10.92,10.92,0,0,1,11-10.8,11.09,11.09,0,0,1,9,4.62L19,5.27a.6.6,0,0,0-.73.42.58.58,0,0,0,.43.72l3.83,1,.15,0a.59.59,0,0,0,.59-.49L24,3.09a.6.6,0,0,0-.48-.69.61.61,0,0,0-.7.48L22.33,5.3A12.26,12.26,0,0,0,12.21,0,12.11,12.11,0,0,0,0,12,12.12,12.12,0,0,0,12.21,24a12.21,12.21,0,0,0,11.26-7.32A.58.58,0,0,0,23.15,15.91ZM18.71,7.24c-.25-.17-.58-.35-1-.56h0l-2-1.06h0l-2-1.11,0,0c-.36-.19-.67-.36-.94-.47A2,2,0,0,0,11,4c-.27.11-.58.28-.94.47l0,0L6,6.67H6c-.38.21-.71.39-1,.56a2.14,2.14,0,0,0-.67.67,2.09,2.09,0,0,0-.27.9c0,.31,0,.67,0,1.1v4.21c0,.43,0,.79,0,1.09a2,2,0,0,0,.27.9,2.17,2.17,0,0,0,.67.68,10.5,10.5,0,0,0,1,.55l0,0,4,2.18h0A9.4,9.4,0,0,0,11,20a2.24,2.24,0,0,0,.89.21,2.23,2.23,0,0,0,.88-.21,9.4,9.4,0,0,0,.94-.48h0l4-2.18,0,0a10.5,10.5,0,0,0,1-.55,2.17,2.17,0,0,0,.67-.68,2,2,0,0,0,.27-.9c0-.3,0-.66,0-1.09V9.91c0-.43,0-.79,0-1.1a2.09,2.09,0,0,0-.27-.9A2.14,2.14,0,0,0,18.71,7.24ZM6.61,7.7l4-2.18a9,9,0,0,1,.86-.44.8.8,0,0,1,.81,0,9,9,0,0,1,.86.44l1.1.6L8.18,9.43,5.77,8.18C6,8.05,6.23,7.91,6.61,7.7Zm4.66,11.16c-.17-.08-.38-.2-.66-.35l-4-2.18c-.42-.23-.69-.38-.88-.51a1,1,0,0,1-.32-.3.84.84,0,0,1-.12-.42c0-.24,0-.54,0-1V9.25l6,3.12ZM9.44,10.08l6-3.29,1.66.91c.38.21.64.35.84.48l-6.1,3.17Zm9,4c0,.47,0,.77,0,1a.84.84,0,0,1-.12.42,1,1,0,0,1-.32.3c-.19.13-.46.28-.88.51l-4,2.18c-.28.15-.49.27-.66.35V12.37l6-3.12v4.84Z" transform="translate(0 -0.03)" fill="#22282f"/></svg>