<svg xmlns="http://www.w3.org/2000/svg" width="20" height="20" viewBox="0 -3 20 18" >
  <g id="Group_1007" data-name="Group 1007" transform="translate(-171.933 -400.95)">
    <path id="Path_255" data-name="Path 255" d="M19.926,112.519c-.158-.24-3.943-5.857-9.926-5.857-5.134,0-9.709,5.585-9.9,5.823a.453.453,0,0,0,0,.563c.193.238,4.768,5.823,9.9,5.823s9.709-5.585,9.9-5.823A.452.452,0,0,0,19.926,112.519ZM10,118c-4.116,0-8.029-4.108-9.023-5.233.993-1.126,4.9-5.233,9.023-5.233,4.816,0,8.215,4.1,9.045,5.209C18.087,113.833,14.151,118,10,118Z" transform="translate(172 294.338)" stroke="#fff" stroke-width="0.1"/>
    <path id="Path_256" data-name="Path 256" d="M174.722,170.662a4.06,4.06,0,1,0,4.06,4.06A4.064,4.064,0,0,0,174.722,170.662Zm0,7.1a3.045,3.045,0,1,1,3.045-3.045A3.049,3.049,0,0,1,174.722,177.767Z" transform="translate(7.277 232.383)" stroke="#fff" stroke-width="0.1"/>
  </g>
</svg>
